<?xml version="1.0" standalone="no"?>
<!DOCTYPE svg PUBLIC "-//W3C//DTD SVG 20010904//EN"
 "http://www.w3.org/TR/2001/REC-SVG-20010904/DTD/svg10.dtd">
<svg version="1.0" xmlns="http://www.w3.org/2000/svg"
 width="100.000000pt" height="100.000000pt" viewBox="0 0 100.000000 100.000000"
 preserveAspectRatio="xMidYMid meet">

<g transform="translate(0.000000,100.000000) scale(0.100000,-0.100000)"
fill="#000000" stroke="none">
<path d="M619 593 c-9 -2 -24 -21 -33 -41 -23 -51 -55 -92 -56 -71 0 9 7 33
16 54 11 27 12 41 5 48 -15 15 -37 -8 -55 -58 -12 -34 -15 -36 -15 -14 -1 34
-52 82 -82 77 -20 -2 -28 -15 -46 -68 -26 -78 -29 -118 -8 -127 27 -10 89 21
112 56 l23 34 0 -31 c0 -42 28 -60 81 -53 l42 6 24 89 c24 88 23 106 -8 99z
m-189 -120 c-8 -15 -21 -28 -29 -31 -11 -4 -12 3 -6 34 9 53 15 59 34 40 14
-15 14 -19 1 -43z"/>
<path d="M120 553 c-53 -60 -90 -163 -59 -163 6 0 23 9 37 21 l26 20 8 -20 c8
-23 23 -27 34 -9 4 7 13 44 20 83 19 108 -7 135 -66 68z m16 -90 c-11 -11 -17
4 -9 23 7 18 8 18 11 1 2 -10 1 -21 -2 -24z"/>
<path d="M262 584 c-15 -7 -56 -85 -70 -136 -7 -25 -7 -39 1 -47 17 -17 25
-13 40 16 l14 27 12 -22 c7 -14 21 -22 36 -22 29 0 31 7 9 38 -15 22 -14 24
11 49 20 21 25 35 23 62 -3 32 -6 36 -33 38 -16 1 -36 -1 -43 -3z m38 -43 c0
-5 -7 -14 -15 -21 -16 -14 -18 -10 -9 14 6 17 24 22 24 7z"/>
<path d="M698 573 c-9 -10 -28 -51 -42 -92 -20 -57 -24 -76 -14 -82 24 -15 44
11 71 93 15 46 27 87 27 91 0 14 -27 7 -42 -10z"/>
<path d="M778 578 c-19 -15 -62 -153 -54 -174 9 -24 26 -16 41 19 8 18 26 39
42 46 27 12 27 13 8 27 -20 15 -20 15 -1 30 28 20 34 18 41 -17 5 -21 1 -44
-11 -71 -14 -32 -15 -41 -5 -48 23 -14 49 1 55 32 3 17 22 56 41 88 19 32 35
63 35 69 0 20 -28 12 -48 -14 -19 -24 -21 -24 -27 -6 -9 30 -86 43 -117 19z"/>
</g>
</svg>
