<?xml version="1.0"?>
<svg version="1.1" xmlns="http://www.w3.org/2000/svg" width="70" height="60" style=""><path fill="#000000" d="M20.60546875,48.7109375q0-1.69921875-1.279296875-2.59765625t-3.720703125-0.8984375l0-4.66796875q2.4609375,0,3.73046875-0.859375t1.26953125-2.4609375l0-0.15625l0-6.2109375q0-2.98828125,1.89453125-4.208984375t6.66015625-1.220703125l0,4.39453125q-1.93359375,0.05859375-2.666015625,0.7421875t-0.732421875,2.01171875l0,5.83984375q-0.1171875,3.671875-4.5703125,4.3359375l0,0.234375q4.5703125,0.68359375,4.5703125,4.140625l0,0.17578125l0,5.83984375q0,1.328125,0.72265625,2.01171875t2.67578125,0.7421875l0,4.4140625q-4.765625,0-6.66015625-1.220703125t-1.89453125-4.228515625l0-6.15234375z M56.807421875,54.86328125q0,2.1875-0.80078125,3.30078125t-2.646484375,1.630859375t-5.107421875,0.517578125l0-4.4140625q1.93359375-0.0390625,2.666015625-0.703125t0.732421875-2.05078125l0-5.83984375l0-0.21484375q0-1.6796875,1.15234375-2.724609375t3.3984375-1.376953125l0-0.234375q-4.43359375-0.6640625-4.55078125-4.3359375l0-5.83984375q0-1.3671875-0.72265625-2.03125t-2.67578125-0.72265625l0-4.39453125q3.26171875,0,5.1171875,0.517578125t2.646484375,1.640625t0.791015625,3.271484375l0,6.2109375l0,0.1953125q0,1.640625,1.201171875,2.4609375t3.798828125,0.8203125l0,4.66796875q-2.44140625,0-3.720703125,0.80078125t-1.279296875,2.6953125l0,6.15234375z"/><path fill="#000000" d=""/></svg>
