<?xml version="1.0" standalone="no"?>
<!DOCTYPE svg PUBLIC "-//W3C//DTD SVG 20010904//EN"
 "http://www.w3.org/TR/2001/REC-SVG-20010904/DTD/svg10.dtd">
<svg version="1.0" xmlns="http://www.w3.org/2000/svg"
 width="400.000000pt" height="400.000000pt" viewBox="0 0 400.000000 400.000000"
 preserveAspectRatio="xMidYMid meet">

<g transform="translate(0.000000,400.000000) scale(0.100000,-0.100000)"
fill="#000000" stroke="none">
<path d="M0 1995 l0 -1995 1995 0 1995 0 0 1995 0 1995 -1995 0 -1995 0 0
-1995z m2702 1128 l78 -78 0 -634 0 -635 -79 -80 -79 -81 -633 3 -634 2 -77
77 -78 78 0 630 0 630 82 82 83 83 630 0 630 0 77 -77z m-27 -1728 c0 -23 -5
-30 -25 -35 -35 -8 -40 -40 -6 -40 22 0 26 -4 26 -30 0 -25 -4 -30 -25 -30
l-25 0 0 -100 0 -100 -40 0 -40 0 0 100 c0 93 -1 100 -20 100 -15 0 -20 7 -20
26 0 17 6 28 20 31 12 3 20 14 20 27 0 48 49 87 105 83 26 -2 30 -6 30 -32z
m-795 -155 l0 -181 -47 0 c-27 -1 -67 -1 -90 -2 -50 -1 -77 19 -94 70 -31 94
16 193 91 193 20 0 41 -5 48 -12 9 -9 12 2 12 50 l0 62 40 0 40 0 0 -180z
m524 158 c24 -40 -44 -80 -71 -42 -17 23 -16 29 3 49 20 20 53 16 68 -7z
m-1217 0 c4 -7 36 -86 69 -175 l62 -163 -43 0 c-39 0 -44 3 -54 30 -10 29 -12
30 -70 30 -58 0 -60 -1 -66 -30 -6 -28 -10 -30 -51 -30 -24 0 -44 1 -44 3 0 5
121 331 126 339 8 13 62 9 71 -4z m293 -90 c0 -9 3 -9 12 0 7 7 25 12 41 12
27 0 28 -2 25 -37 -3 -35 -6 -38 -38 -43 l-35 -5 -3 -87 -3 -88 -39 0 -40 0 0
123 c0 68 3 127 7 130 11 12 73 8 73 -5z m580 -72 c0 -104 4 -116 41 -116 l28
0 3 98 3 97 38 3 37 3 0 -131 0 -131 -47 1 c-27 1 -61 -2 -78 -5 -42 -8 -78
14 -92 55 -13 37 -18 192 -6 203 3 4 21 7 40 7 l33 0 0 -84z m350 -46 l0 -130
-40 0 -40 0 0 130 0 130 40 0 40 0 0 -130z m426 70 c9 -33 20 -63 24 -65 4 -3
16 24 25 60 l18 65 38 0 c26 0 39 -5 39 -13 0 -12 -49 -157 -96 -286 -18 -47
-62 -75 -103 -64 -32 8 -25 55 9 63 38 9 36 41 -10 168 -22 62 -40 117 -40
122 0 6 18 10 39 10 l40 0 17 -60z"/>
<path d="M1520 2405 l0 -475 470 0 470 0 0 475 0 475 -470 0 -470 0 0 -475z"/>
<path d="M1736 1244 c-20 -20 -21 -97 -2 -114 8 -6 25 -10 38 -8 20 3 23 9 26
56 4 74 -24 104 -62 66z"/>
<path d="M1140 1266 c-5 -15 -13 -38 -16 -51 -6 -23 -3 -25 29 -25 l36 0 -16
48 c-20 60 -20 60 -33 28z"/>
</g>
</svg>
